<svg width="16" height="16" viewBox="0 0 16 16" fill="none" xmlns="http://www.w3.org/2000/svg">
<g clip-path="url(#clip0_31141_107)">
<path opacity="0.4" d="M5.625 14H3C2.20435 14 1.44129 13.6839 0.87868 13.1213C0.31607 12.5587 0 11.7956 0 11L0 5C0 4.20435 0.31607 3.44129 0.87868 2.87868C1.44129 2.31607 2.20435 2 3 2H5.625C5.72446 2 5.81984 2.03951 5.89016 2.10983C5.96049 2.18016 6 2.27554 6 2.375V3.625C6 3.72446 5.96049 3.81984 5.89016 3.89017C5.81984 3.96049 5.72446 4 5.625 4H3C2.73478 4 2.48043 4.10536 2.29289 4.29289C2.10536 4.48043 2 4.73478 2 5V11C2 11.2652 2.10536 11.5196 2.29289 11.7071C2.48043 11.8946 2.73478 12 3 12H5.625C5.72446 12 5.81984 12.0395 5.89016 12.1098C5.96049 12.1802 6 12.2755 6 12.375V13.625C6 13.7245 5.96049 13.8198 5.89016 13.8902C5.81984 13.9605 5.72446 14 5.625 14Z" fill="#213F7D"/>
<path d="M11.0313 2.75934L15.7781 7.46559C15.8485 7.53532 15.9044 7.61831 15.9425 7.70977C15.9807 7.80122 16.0003 7.89932 16.0003 7.9984C16.0003 8.09749 15.9807 8.19559 15.9425 8.28704C15.9044 8.37849 15.8485 8.46148 15.7781 8.53122L11.0281 13.2437C10.8868 13.383 10.6962 13.4607 10.4978 13.4602C10.2994 13.4596 10.1093 13.3807 9.96875 13.2406L9.28438 12.5562C9.21298 12.4844 9.15683 12.3988 9.1193 12.3047C9.08177 12.2107 9.06363 12.11 9.06596 12.0087C9.0683 11.9074 9.09106 11.8077 9.13289 11.7154C9.17472 11.6232 9.23475 11.5403 9.30938 11.4718L11.7344 9.24997H5.75C5.65144 9.25021 5.5538 9.23098 5.4627 9.19338C5.37159 9.15578 5.28881 9.10054 5.21912 9.03085C5.14943 8.96115 5.09419 8.87838 5.05659 8.78727C5.01899 8.69616 4.99976 8.59853 5 8.49997V7.49997C4.99976 7.4014 5.01899 7.30377 5.05659 7.21266C5.09419 7.12155 5.14943 7.03878 5.21912 6.96908C5.28881 6.89939 5.37159 6.84416 5.4627 6.80655C5.5538 6.76895 5.65144 6.74972 5.75 6.74997H11.7344L9.30938 4.52809C9.23516 4.45959 9.17555 4.37681 9.1341 4.28471C9.09266 4.19262 9.07025 4.0931 9.0682 3.99212C9.06616 3.89115 9.08453 3.79081 9.12222 3.69711C9.1599 3.60341 9.21612 3.51828 9.2875 3.44684L9.97188 2.76247C10.1121 2.62179 10.3023 2.54246 10.5009 2.54187C10.6995 2.54129 10.8902 2.61949 11.0313 2.75934Z" fill="#213F7D"/>
</g>
<defs>
<clipPath id="clip0_31141_107">
<rect width="16" height="16" fill="white"/>
</clipPath>
</defs>
</svg>
