<svg width="16" height="16" viewBox="0 0 16 16" fill="none" xmlns="http://www.w3.org/2000/svg">
<path d="M8 7C7.80222 7 7.60888 7.05865 7.44443 7.16853C7.27998 7.27841 7.15181 7.43459 7.07612 7.61732C7.00043 7.80004 6.98063 8.00111 7.01921 8.19509C7.0578 8.38907 7.15304 8.56725 7.29289 8.70711C7.43275 8.84696 7.61093 8.9422 7.80491 8.98079C7.99889 9.01937 8.19996 8.99957 8.38268 8.92388C8.56541 8.84819 8.72159 8.72002 8.83147 8.55557C8.94135 8.39112 9 8.19778 9 8C9 7.73478 8.89464 7.48043 8.70711 7.29289C8.51957 7.10536 8.26522 7 8 7ZM8 0C3.58187 0 0 3.58187 0 8C0 12.4181 3.58187 16 8 16C12.4181 16 16 12.4181 16 8C16 3.58187 12.4181 0 8 0ZM8 14C4.69156 14 2 11.3084 2 8C2 4.69156 4.69156 2 8 2C11.3084 2 14 4.69156 14 8C14 11.3084 11.3084 14 8 14Z" fill="#213F7D"/>
</svg>
