<svg width="12" height="14" viewBox="0 0 12 14" fill="none" xmlns="http://www.w3.org/2000/svg">
<path d="M10.6974 5.68751L11.2446 6.23463C11.3484 6.33478 11.4072 6.47227 11.4085 6.61626C11.4099 6.76017 11.3528 6.8992 11.2507 7.00076M10.6974 5.68751L11.18 6.93001M10.6974 5.68751L11.2452 5.1397L11.2452 5.13971L11.2464 5.13854C11.4507 4.92746 11.4472 4.59222 11.2404 4.3848L11.2402 4.38457C11.0328 4.1778 10.6975 4.17427 10.4865 4.37863L10.4853 4.37976L9.9375 4.92757M10.6974 5.68751L9.9375 4.92757M11.2507 7.00076C11.2506 7.00082 11.2506 7.00089 11.2505 7.00095L11.18 6.93001M11.2507 7.00076C11.2508 7.00067 11.2509 7.00058 11.251 7.00049L11.18 6.93001M11.2507 7.00076C11.1491 7.10283 11.0101 7.15986 10.8663 7.15852C10.7223 7.15718 10.5848 7.09836 10.4846 6.99459M11.18 6.93001C11.0974 7.01313 10.9842 7.05962 10.8672 7.05853C10.7496 7.05743 10.6375 7.00931 10.556 6.92454M10.4846 6.99459L10.4853 6.99525L10.556 6.92454M10.4846 6.99459C10.4844 6.99434 10.4842 6.99409 10.4839 6.99385L10.556 6.92454M10.4846 6.99459L10.556 6.92454M9.9375 4.92757L9.38969 4.37976L9.38969 4.37975L9.38853 4.37863C9.17744 4.17426 8.84221 4.17782 8.63479 4.38457L8.63456 4.3848C8.42779 4.59222 8.42426 4.92746 8.62861 5.13854L8.6286 5.13855L8.62975 5.1397L9.17756 5.68751L9.9375 4.92757ZM5.08321 5.78713L5.08358 5.7875H5.125C5.84771 5.7875 6.54087 5.50023 7.05183 4.9893L6.98112 4.91859L7.05183 4.9893C7.56276 4.47837 7.85003 3.78519 7.85003 3.06247C7.85003 2.33974 7.56276 1.64659 7.05183 1.13564L6.98112 1.20635L7.05183 1.13564C6.5409 0.624706 5.84772 0.337439 5.125 0.337439C4.40227 0.337439 3.70913 0.624707 3.19817 1.13563L3.19817 1.13564C2.68724 1.64657 2.39997 2.33974 2.39997 3.06247L2.39997 3.06255C2.40054 3.78527 2.68838 4.47782 3.19867 4.9887L3.19875 4.98878C3.69979 5.48925 4.37558 5.77575 5.08321 5.78713ZM3.47503 3.06258C3.47606 2.15407 4.20964 1.41784 5.11715 1.4125H5.125C5.79221 1.4125 6.39395 1.81469 6.64919 2.43084L6.64921 2.43087C6.90495 3.04756 6.76367 3.7576 6.29189 4.22935L6.3626 4.30007L6.29189 4.22936C5.8201 4.70114 5.11009 4.84242 4.49341 4.58668L4.49337 4.58666C3.87725 4.33145 3.47507 3.72976 3.47503 3.06258ZM5.12495 6.52303L5.12487 6.4625C3.82254 6.46417 2.57375 6.98219 1.65273 7.90268L1.65269 7.90273C0.732181 8.82379 0.214215 10.0726 0.2125 11.3749V11.375V13.125C0.2125 13.2673 0.268864 13.4043 0.369758 13.5052L5.12495 6.52303ZM8.96249 12.5875H1.2875V11.375C1.2875 10.0041 2.01876 8.73726 3.20617 8.0519L3.2062 8.05189C4.39368 7.36594 5.85619 7.36594 7.04366 8.05189L7.04369 8.0519C8.23117 8.73731 8.96236 10.0043 8.96236 11.375L8.96249 12.5875ZM10.0082 6.37673L9.93749 6.30602L9.86678 6.37673L9.9375 6.44744L10.0082 6.37673Z" fill="#545F7D" stroke="#545F7D" stroke-width="0.2"/>
</svg>
